HIERARCHY
ROOT Hips
{
	OFFSET 0.000000 0.000000 0.000000
	CHANNELS 6 Xposition Yposition Zposition Zrotation Yrotation Xrotation 
	JOINT LHipJoint
	{
		OFFSET 0.000000 0.000000 0.000000
		CHANNELS 3 Zrotation Yrotation Xrotation
		JOINT LeftUpLeg
		{
			OFFSET 1.363060 -1.794630 0.839290
			CHANNELS 3 Zrotation Yrotation Xrotation
			JOINT LeftLeg
			{
				OFFSET 2.448110 -6.726130 0.000000
				CHANNELS 3 Zrotation Yrotation Xrotation
				JOINT LeftFoot
				{
					OFFSET 2.562200 -7.039590 0.000000
					CHANNELS 3 Zrotation Yrotation Xrotation
					JOINT LeftToeBase
					{
						OFFSET 0.157640 -0.433110 2.322550
						CHANNELS 3 Zrotation Yrotation Xrotation
						End Site
						{
							OFFSET 0.000000 0.000000 0.000000
						}
					}
				}
			}
		}
	}
	JOINT RHipJoint
	{
		OFFSET 0.000000 0.000000 0.000000
		CHANNELS 3 Zrotation Yrotation Xrotation
		JOINT RightUpLeg
		{
			OFFSET -1.305520 -1.794630 0.839290
			CHANNELS 3 Zrotation Yrotation Xrotation
			JOINT RightLeg
			{
				OFFSET -2.542530 -6.985550 0.000000
				CHANNELS 3 Zrotation Yrotation Xrotation
				JOINT RightFoot
				{
					OFFSET -2.568260 -7.056230 0.000000
					CHANNELS 3 Zrotation Yrotation Xrotation
					JOINT RightToeBase
					{
						OFFSET -0.164730 -0.452590 2.363150
						CHANNELS 3 Zrotation Yrotation Xrotation
						End Site
						{
							OFFSET 0.000000 0.000000 0.000000
						}
					}
				}
			}
		}
	}
}
MOTION
Frames: 34
Frame Time: 0.008333
2.519644 17.330012 -1.110371 7.803851 83.808825 22.427935 -10.141378 1.657068 1.035941 -11.921212 1.571602 -12.195844 -2.607601 -0.858167 8.816632 0.642696 2.334631 -8.541558 -0.127100 0.000000 -30.363600 8.949276 0.107307 2.453197 5.657681 1.834319 -39.179617 2.148343 -0.787651 20.206906 -1.186080 -4.622970 -2.822760 -1.039900 -0.000001 -38.441100
2.687395 17.307621 -1.091526 9.649215 83.964135 24.335721 -10.122283 1.695207 0.937896 -12.052098 1.765644 -11.257728 -2.652436 -0.910069 8.278108 0.615429 2.059727 -8.820896 -0.146800 0.000000 -30.788200 8.909477 0.166990 2.678570 5.479667 1.863472 -39.539653 2.343544 -0.461424 17.208409 -1.038156 -3.998822 -2.410616 -1.022000 0.000000 -38.506500
2.855236 17.282201 -1.070974 11.799388 84.116544 26.525827 -10.091520 1.732483 0.832070 -12.201040 1.959512 -10.291035 -2.697091 -0.960350 7.755415 0.589630 1.796553 -9.080508 -0.162600 0.000000 -31.258300 8.889081 0.237289 2.892401 5.264215 1.844908 -39.872982 2.534367 -0.132676 14.287714 -0.850558 -3.189491 -2.017300 -0.957500 -0.000001 -38.671300
3.022844 17.253996 -1.048984 14.211399 84.259666 28.938984 -10.047205 1.770418 0.714618 -12.364012 2.165550 -9.271310 -2.741141 -1.007859 7.236460 0.564127 1.542484 -9.304427 -0.173800 0.000000 -31.757200 8.888935 0.322301 3.082118 5.026568 1.764074 -40.164515 2.718163 0.190984 11.476491 -0.624364 -2.187249 -1.642030 -0.842900 0.000000 -39.004400
3.190305 17.223276 -1.025819 16.787608 84.390103 31.475284 -9.990150 1.811269 0.586529 -12.530927 2.395614 -8.203303 -2.784471 -1.050979 6.728112 0.537384 1.286729 -9.490104 -0.180200 -0.000000 -32.269600 8.906774 0.423363 3.242927 4.789107 1.618469 -40.415054 2.892938 0.503909 8.798984 -0.366234 -1.008115 -1.280939 -0.681100 0.000000 -39.553700
3.357172 17.190262 -1.001845 19.408755 84.496224 33.997981 -9.920648 1.855610 0.443138 -12.694094 2.657388 -7.052594 -2.825462 -1.089065 6.206594 0.509893 1.037296 -9.628083 -0.181900 0.000000 -32.787101 8.940116 0.543664 3.361263 4.574572 1.402542 -40.603707 3.056345 0.799338 6.280350 -0.084391 0.328674 -0.933375 -0.476000 0.000000 -40.363800
3.523905 17.155142 -0.977330 21.941589 84.580301 36.388330 -9.844401 1.904792 0.290598 -12.838717 2.956038 -5.856011 -2.864031 -1.120795 5.698008 0.480717 0.780619 -9.735047 -0.179500 0.000000 -33.305100 8.981971 0.679194 3.445049 4.402441 1.137101 -40.747474 3.206530 1.076824 3.922503 0.205746 1.761971 -0.592377 -0.241300 -0.000001 -41.406900
3.690548 17.118068 -0.952522 24.273494 84.640158 38.537147 -9.766096 1.957942 0.129940 -12.954882 3.289933 -4.617838 -2.898913 -1.146098 5.202480 0.450882 0.521284 -9.821059 -0.174300 0.000000 -33.827300 9.026375 0.826885 3.495938 4.284249 0.840868 -40.846177 3.340677 1.335381 1.725100 0.489390 3.227277 -0.252177 0.009600 0.000000 -42.647400
3.857472 17.079233 -0.927516 26.333299 84.678880 40.388693 -9.690664 2.013796 -0.034333 -13.035264 3.649864 -3.362924 -2.929394 -1.165354 4.733603 0.421679 0.262622 -9.904814 -0.167399 -0.000000 -34.361399 9.067798 0.980840 3.523154 4.221938 0.540222 -40.913657 3.455814 1.575974 -0.319912 0.751528 4.645045 0.093837 0.261300 0.000000 -44.002500
4.025181 17.038753 -0.902243 28.109745 84.702137 41.951826 -9.621451 2.070877 -0.195869 -13.077218 4.018534 -2.125037 -2.955164 -1.179291 4.310530 0.394916 0.011278 -10.007614 -0.160300 -0.000001 -34.917800 9.103048 1.134016 3.540451 4.204021 0.266603 -40.968797 3.548172 1.800456 -2.226698 0.978736 5.926209 0.454511 0.497800 -0.000000 -45.373900
4.193657 16.996755 -0.876896 29.546053 84.707696 43.169932 -9.561529 2.127057 -0.355841 -13.078746 4.387029 -0.894545 -2.974747 -1.188754 3.922813 0.372537 -0.217615 -10.134201 -0.153901 0.000000 -35.522800 9.129549 1.281817 3.547325 4.229339 0.032236 -41.010678 3.617228 2.006171 -3.986470 1.165110 7.015600 0.834554 0.709999 0.000000 -46.748900
4.363704 16.953453 -0.851077 30.731687 84.704188 44.161282 -9.510422 2.182098 -0.503865 -13.047768 4.727149 0.277630 -2.989141 -1.194352 3.602347 0.356216 -0.417663 -10.304692 -0.149600 0.000000 -36.186099 9.148726 1.417052 3.562902 4.269374 -0.134230 -41.073369 3.660748 2.194944 -5.607978 1.303824 7.836610 1.237680 0.884400 0.000001 -48.013400
4.535655 16.909042 -0.824635 31.714038 84.692183 44.982614 -9.466947 2.235748 -0.636113 -12.993546 5.019481 1.380528 -2.998451 -1.196437 3.353686 0.347355 -0.576452 -10.519641 -0.148200 -0.000000 -36.923500 9.162069 1.536200 3.590997 4.312200 -0.230256 -41.177467 3.681159 2.363882 -7.067140 1.395794 8.365026 1.653080 1.014000 -0.000000 -49.127900
4.709761 16.863805 -0.797430 32.531994 84.675195 45.684210 -9.427560 2.286278 -0.753729 -12.924138 5.247036 2.406502 -3.003516 -1.196062 3.180013 0.346251 -0.687294 -10.771202 -0.150200 0.000000 -37.747801 9.148886 1.623139 3.640436 4.336171 -0.194270 -41.943420 3.707134 2.396708 -7.118236 1.372561 8.635107 1.368644 1.093900 0.000000 -50.065100
4.886266 16.818047 -0.769333 33.237545 84.652577 46.319514 -9.391428 2.335259 -0.853331 -12.849280 5.398593 3.350665 -3.004589 -1.191872 3.084955 0.352700 -0.745628 -11.044810 -0.155900 -0.000000 -38.662000 9.118996 1.680070 3.710477 4.337699 -0.059815 -43.160944 3.736422 2.332879 -6.189531 1.267625 8.662629 0.617698 1.121600 -0.000000 -50.795499
5.065407 16.772139 -0.740119 33.904915 84.621888 46.957703 -9.358149 2.386512 -0.927576 -12.779743 5.465487 4.209802 -3.001720 -1.181270 3.074213 0.365966 -0.749831 -11.321692 -0.165300 0.000000 -39.651700 9.098217 1.722660 3.792462 4.326282 0.088582 -44.193281 3.745640 2.292820 -5.554895 1.172534 8.463632 0.106378 1.098900 -0.000000 -51.280100
5.247008 16.726455 -0.709960 34.506803 84.583373 47.556824 -9.328753 2.440776 -0.980281 -12.713299 5.457319 5.005997 -2.994292 -1.162406 3.136353 0.383552 -0.706536 -11.569379 -0.177400 -0.000000 -40.724200 9.085709 1.754864 3.875511 4.312766 0.230274 -44.992935 3.738048 2.281413 -5.246615 1.100059 8.109628 -0.173899 1.033500 -0.000000 -51.514500
5.431293 16.681370 -0.678513 35.130190 84.540384 48.203237 -9.299692 2.500122 -1.009035 -12.658332 5.370277 5.735236 -2.983364 -1.133884 3.277474 0.403513 -0.622528 -11.765730 -0.191100 0.000000 -41.847100 9.084103 1.780304 3.958337 4.290039 0.351476 -45.539089 3.715870 2.303254 -5.285403 1.053764 7.663583 -0.246740 0.935800 0.000000 -51.460800
5.618224 16.637215 -0.645637 35.806938 84.496051 48.920572 -9.270079 2.565574 -1.016970 -12.614396 5.214773 6.407254 -2.969378 -1.093923 3.496760 0.423029 -0.510364 -11.886173 -0.204200 0.000000 -43.010200 9.093337 1.803053 4.034432 4.256709 0.441248 -45.806495 3.682256 2.359791 -5.672384 1.031711 7.189524 -0.143105 0.820200 0.000000 -51.113800
5.807543 16.594266 -0.611681 36.446696 84.451112 49.595068 -9.243725 2.637242 -1.013132 -12.567102 5.021510 7.062786 -2.950862 -1.041645 3.763937 0.438520 -0.383626 -11.894490 -0.213700 0.000000 -44.243300 9.108485 1.824862 4.095098 4.212632 0.509827 -45.769759 3.639254 2.446276 -6.362756 1.026762 6.730429 0.088245 0.699601 -0.000000 -50.488800
5.999443 16.552771 -0.576287 37.110045 84.410514 50.286112 -9.219425 2.715874 -0.999528 -12.515055 4.800744 7.700041 -2.928620 -0.976303 4.083204 0.448141 -0.254106 -11.781255 -0.217400 -0.000000 -45.537900 9.130213 1.847107 4.140856 4.142875 0.564356 -45.437883 3.586802 2.557739 -7.315485 1.033310 6.311075 0.411613 0.583400 -0.000000 -49.582000
6.193981 16.512976 -0.539573 37.750599 84.378764 50.941101 -9.199042 2.800105 -0.984779 -12.446269 4.575152 8.336010 -2.902198 -0.898700 4.437301 0.450141 -0.132130 -11.533244 -0.213300 -0.000000 -46.921600 9.145488 1.860799 4.176162 4.032084 0.657035 -45.102413 3.535666 2.632563 -7.908307 1.022590 5.954334 0.475037 0.477000 -0.000000 -48.385300
6.391447 16.475110 -0.501149 38.415900 84.364828 51.626057 -9.179512 2.886897 -0.975698 -12.358287 4.343287 8.953526 -2.872650 -0.810642 4.834540 0.445200 -0.019438 -11.160419 -0.201800 -0.000000 -48.402000 9.128416 1.844377 4.221194 3.844061 0.892256 -45.539161 3.512093 2.524350 -6.619619 0.935159 5.687683 -0.563069 0.380800 0.000001 -46.933100
6.592201 16.439415 -0.461153 39.065825 84.367570 52.285738 -9.167673 2.979118 -0.964932 -12.240183 4.120658 9.559130 -2.837312 -0.711656 5.264808 0.434366 0.087095 -10.666934 -0.183000 -0.000000 -50.022100 9.108076 1.820839 4.261447 3.605579 1.186336 -45.863256 3.478666 2.399400 -5.213313 0.840528 5.425922 -1.662100 0.293600 -0.000000 -45.224799
6.796605 16.406183 -0.419737 39.655326 84.390568 52.877931 -9.167760 3.075953 -0.950846 -12.082289 3.908937 10.146222 -2.794255 -0.603048 5.725719 0.419976 0.196601 -10.065786 -0.158400 -0.000000 -51.821900 9.083091 1.787895 4.299342 3.328561 1.548698 -46.061790 3.433099 2.262157 -3.750173 0.736267 5.130006 -2.736142 0.214000 -0.000000 -43.271300
7.005062 16.375726 -0.377196 40.119969 84.436757 53.344194 -9.185035 3.176597 -0.930161 -11.875218 3.704873 10.701687 -2.741267 -0.486157 6.219594 0.404768 0.320448 -9.372166 -0.129301 -0.000000 -53.848800 9.051201 1.741732 4.337997 3.033314 1.985557 -46.136482 3.374351 2.116386 -2.280965 0.620164 4.759274 -3.697484 0.140599 -0.000000 -41.066800
7.218004 16.348354 -0.333728 40.442380 84.507316 53.678646 -9.221787 3.280984 -0.895806 -11.620816 3.490508 11.203174 -2.676588 -0.362323 6.756807 0.392330 0.476991 -8.601526 -0.096800 0.000000 -56.136301 9.012764 1.678230 4.381366 2.742744 2.489969 -46.114797 3.302335 1.963179 -0.837402 0.492044 4.281598 -4.453642 0.072101 0.000000 -38.729500
7.435655 16.324454 -0.290081 40.482058 84.605101 53.745112 -9.286437 3.388493 -0.845988 -11.303830 3.267545 11.633495 -2.597522 -0.231623 7.349822 0.383767 0.668002 -7.760292 -0.060200 0.000000 -58.733900 8.962309 1.592601 4.430373 2.491474 3.060928 -46.015342 3.218780 1.804289 0.556171 0.351147 3.668450 -4.935394 0.003700 -0.000000 -36.190100
7.658194 16.304302 -0.246542 40.211304 84.727737 53.526439 -9.379239 3.499976 -0.773407 -10.934234 3.014005 11.966495 -2.502774 -0.094258 8.019235 0.381569 0.907061 -6.850763 -0.018300 -0.000000 -61.635200 8.901822 1.482093 4.486098 2.305484 3.673682 -45.885926 3.125190 1.636668 1.899432 0.201298 2.913034 -5.057643 -0.072300 -0.000001 -33.782700
7.885437 16.288168 -0.204123 39.408611 84.877188 52.800407 -9.509305 3.616067 -0.679588 -10.490405 2.747510 12.180856 -2.390081 0.051537 8.792656 0.383652 1.172508 -5.863413 0.030901 0.000000 -64.839800 8.824848 1.344423 4.546282 2.224212 4.316616 -45.751259 3.026192 1.460334 3.198358 0.044815 2.019630 -4.793114 -0.169700 0.000000 -31.414000
8.117068 16.276211 -0.163232 37.974136 85.045770 51.469923 -9.674334 3.738742 -0.561833 -9.983034 2.461359 12.255097 -2.259003 0.207013 9.697660 0.390115 1.459139 -4.780541 0.089200 -0.000000 -68.264200 8.735590 1.181731 4.607523 2.268435 4.954929 -45.653032 2.924276 1.270833 4.473241 -0.110546 1.016901 -4.090049 -0.305400 0.000000 -29.554100
8.352381 16.268431 -0.124362 35.709243 85.224208 49.332557 -9.872158 3.870096 -0.422838 -9.412704 2.170449 12.173105 -2.109303 0.374089 10.763335 0.399368 1.744620 -3.574847 0.157300 0.000000 -71.797900 8.637580 0.999337 4.664590 2.456483 5.560435 -45.615864 2.822689 1.065794 5.750047 -0.257409 -0.051265 -2.949206 -0.496801 -0.000000 -28.456300
8.590515 16.264830 -0.088514 32.154173 85.407238 45.917614 -10.105370 4.012372 -0.272149 -8.744100 1.928931 11.914768 -1.940298 0.555491 12.027987 0.406832 1.971514 -2.217630 0.231300 0.000000 -75.314900 8.530427 0.804211 4.711884 2.820478 6.122081 -45.640714 2.728563 0.847137 7.052802 -0.390425 -1.132785 -1.441063 -0.753100 0.000001 -27.958100
8.830210 16.265071 -0.055114 27.189842 85.571449 41.101557 -10.348002 4.165531 -0.113082 -8.013656 1.732018 11.481434 -1.754003 0.750295 13.501654 0.416336 2.144589 -0.670689 0.308000 -0.000000 -78.617900 8.435504 0.611363 4.744733 3.341024 6.607352 -45.743690 2.640480 0.612009 8.417619 -0.501790 -2.157946 0.352810 -1.068499 0.000000 -28.249900
